<mxfile host="app.diagrams.net" modified="2025-02-27T15:09:04.622Z" agent="Mozilla/5.0 (Macintosh; Intel Mac OS X 10_15_7) AppleWebKit/537.36 (KHTML, like Gecko) Chrome/133.0.0.0 Safari/537.36" etag="2_dF8arq3xxWw1ZoMByl" version="21.5.2" type="github">
  <diagram name="Page-1" id="hSKeOsJ9tZY3on4bNJvg">
    <mxGraphModel dx="873" dy="599" grid="1" gridSize="10" guides="1" tooltips="1" connect="1" arrows="1" fold="1" page="1" pageScale="1" pageWidth="850" pageHeight="1100" math="0" shadow="0">
      <root>
        <mxCell id="0" />
        <mxCell id="1" parent="0" />
        <mxCell id="oOLzpR-k_oNW3GFLWhHS-1" value="" style="rounded=0;whiteSpace=wrap;html=1;" vertex="1" parent="1">
          <mxGeometry x="160" y="200" width="120" height="60" as="geometry" />
        </mxCell>
        <mxCell id="oOLzpR-k_oNW3GFLWhHS-2" value="" style="rounded=0;whiteSpace=wrap;html=1;" vertex="1" parent="1">
          <mxGeometry x="160" y="290" width="280" height="60" as="geometry" />
        </mxCell>
        <mxCell id="oOLzpR-k_oNW3GFLWhHS-3" value="Actor" style="shape=umlActor;verticalLabelPosition=bottom;verticalAlign=top;html=1;outlineConnect=0;" vertex="1" parent="1">
          <mxGeometry x="185" y="90" width="30" height="60" as="geometry" />
        </mxCell>
        <mxCell id="oOLzpR-k_oNW3GFLWhHS-4" value="" style="rounded=0;whiteSpace=wrap;html=1;" vertex="1" parent="1">
          <mxGeometry x="320" y="200" width="120" height="60" as="geometry" />
        </mxCell>
        <mxCell id="oOLzpR-k_oNW3GFLWhHS-6" value="" style="edgeStyle=orthogonalEdgeStyle;rounded=0;orthogonalLoop=1;jettySize=auto;html=1;" edge="1" parent="1" source="oOLzpR-k_oNW3GFLWhHS-5" target="oOLzpR-k_oNW3GFLWhHS-4">
          <mxGeometry relative="1" as="geometry" />
        </mxCell>
        <mxCell id="oOLzpR-k_oNW3GFLWhHS-5" value="Admin" style="shape=umlActor;verticalLabelPosition=bottom;verticalAlign=top;html=1;outlineConnect=0;" vertex="1" parent="1">
          <mxGeometry x="365" y="90" width="30" height="60" as="geometry" />
        </mxCell>
      </root>
    </mxGraphModel>
  </diagram>
</mxfile>
